<svg width="48" height="48" viewBox="0 0 24 24" fill="none" xmlns="http://www.w3.org/2000/svg">
  <path d="M11.998 24c-1.421 0-2.7-.363-3.842-1.014l3.842-3.842c.65-.65.65-1.707 0-2.357l-5.586-5.586c-.65-.65-1.707 0-2.357l5.586-5.586c.65-.65 1.707 0 2.357l-3.842-3.842c1.142-.651 1.958-1.014 3.842-1.014 2.761 0 5 2.239 5 5s-2.239 5-5 5c-1.884 0-2.7-.363-3.842-1.014l3.842-3.842c.65-.65.65-1.707 0-2.357l-5.586-5.586c-.65-.65-1.707 0-2.357l5.586-5.586c.65-.65 1.707 0 2.357l-3.842-3.842c1.142-.651 1.958-1.014 3.842-1.014 2.761 0 5 2.239 5 5s-2.239 5-5 5c-1.884 0-2.7-.363-3.842-1.014l3.842-3.842c.65-.65.65-1.707 0-2.357l-5.586-5.586c-.65-.65-1.707 0-2.357l5.586-5.586c.65-.65 1.707 0 2.357l-3.842-3.842c1.142-.651 1.958-1.014 3.842-1.014z" fill="#339933"/>
</svg>
