<svg width="48" height="48" viewBox="0 0 24 24" fill="none" xmlns="http://www.w3.org/2000/svg">
  <path d="M12 2C12 2 6 4 6 8C6 10 8 12 12 12C16 12 18 10 18 8C18 4 12 2 12 2Z" stroke="currentColor" stroke-width="2" stroke-linecap="round" stroke-linejoin="round"/>
  <path d="M12 12C12 12 6 14 6 18C6 20 8 22 12 22C16 22 18 20 18 18C18 14 12 12 12 12Z" stroke="currentColor" stroke-width="2" stroke-linecap="round" stroke-linejoin="round"/>
  <path d="M12 12L12 12" stroke="currentColor" stroke-width="2" stroke-linecap="round" stroke-linejoin="round"/>
  <path d="M8 8C8 8 8 10 8 12C8 14 8 16 8 16" stroke="currentColor" stroke-width="2" stroke-linecap="round" stroke-linejoin="round"/>
  <path d="M16 8C16 8 16 10 16 12C16 14 16 16 16 16" stroke="currentColor" stroke-width="2" stroke-linecap="round" stroke-linejoin="round"/>
</svg>
