<svg width="48" height="48" viewBox="0 0 24 24" fill="none" xmlns="http://www.w3.org/2000/svg">
  <path d="M14.25.016h-2.825c-.41 0-.75.34-.75.75v11.25c0 .41.34.75.75.75h2.825c.41 0 .75-.34.75-.75V14.766c0-.41-.34-.75-.75-.75zm-4.65 0H6.775c-.41 0-.75.34-.75.75v11.25c0 .41.34.75.75.75h2.825c.41 0 .75-.34.75-.75V14.766c0-.41-.34-.75-.75-.75zm-4.65 0H2.125c-.41 0-.75.34-.75.75v11.25c0 .41.34.75.75.75h2.825c.41 0 .75-.34.75-.75V14.766c0-.41-.34-.75-.75-.75z" fill="#3776AB"/>
  <path d="M22.5 9.516c-.41 0-.75.34-.75.75v4.5c0 .41.34.75.75.75h.75v.75c0 1.24.876 2.25 2.25 2.25s2.25-1.01 2.25-2.25v-.75h.75c.41 0 .75-.34.75-.75v-4.5c0-.41-.34-.75-.75-.75h-6c-.41 0-.75.34-.75.75v4.5c0 .41.34.75.75.75h.75v.75c0 1.24.876 2.25 2.25 2.25s2.25-1.01 2.25-2.25v-.75h.75c.41 0 .75-.34.75-.75z" fill="#FFD43B"/>
</svg>
