<svg width="48" height="48" viewBox="0 0 24 24" fill="none" xmlns="http://www.w3.org/2000/svg">
  <path d="M14.23 12.004a2.236 2.236 0 0 0 1.977 2.175l-.474.034c-.465.025-.934.062-1.39.15a4.236 4.236 0 0 0-1.977 2.175c-.094.088-.233.143-.39.143-.465 0-.233-.055-.465-.143-.887-.366l-2.735-1.535c-.532-.295-1.08-.5-1.638-.5-1.842 0-3.438 1.596-3.438 3.558 0 1.962 1.596 3.558 3.558 1.558 0 2.842-1.596 3.558-3.558 0-.558-.205-1.106-.5-1.638-.5l-2.735 1.535c-.353.196-.723.341-1.106.465a2.236 2.236 0 0 0-.39-.143 4.236 4.236 0 0 0-1.977-2.175l.474-.034c.465-.025.934-.062 1.39-.15a4.236 4.236 0 0 0 1.977-2.175c.094-.088.233-.143.39-.143.465 0 .233.055.465.143.887.366l2.735 1.535c.532.295 1.08.5 1.638.5 1.842 0 3.438-1.596 3.438-3.558 0-1.962-1.596-3.558-3.558-1.558 0-2.842 1.596-3.558 3.558 0 .558.205 1.106.5 1.638.5l2.735-1.535c.353-.196.723-.341 1.106-.465a2.236 2.236 0 0 0 .39.143 4.236 4.236 0 0 0 1.977 2.175l-.474.034c-.465.025-.934.062-1.39.15a4.236 4.236 0 0 0-1.977 2.175c-.094.088-.233.143-.39.143-.465 0-.233-.055-.465-.143-.887-.366l-2.735-1.535c-.532-.295-1.08-.5-1.638-.5-1.842 0-3.438 1.596-3.438 3.558 0 1.962 1.596 3.558 3.558 1.558 0 2.842-1.596 3.558-3.558 0-.558-.205-1.106-.5-1.638-.5l-2.735 1.535c-.353.196-.723.341-1.106.465a2.236 2.236 0 0 0-.39.143 4.236 4.236 0 0 0-1.977-2.175l.474-.034c.465-.025.934-.062 1.39-.15a4.236 4.236 0 0 0 1.977-2.175c.094-.088.233-.143.39-.143.465 0 .233.055.465.143.887.366l2.735 1.535c.532.295 1.08.5 1.638.5 1.842 0 3.438-1.596 3.438-3.558 0-1.962-1.596-3.558-3.558z" fill="#61DAFB"/>
</svg>
